custom-analysis
version=1
nRows=4
nColumns=98
inDegrees=no

This file contains tibia displacement and acting force.

Units are S.I. units (seconds, meters, Newtons, ...)
Angles are in degrees.

endheader
time	APT	SIT	knee_angle	aACL_R_force	pACL_R_force	aPCL_R_force	pPCL_R_force	aMCL_R_force	mMCL_R_force	pMCL_R_force	aLCL_R_force	mLCL_R_force	pLCL_R_force	aPCL_L_force	pPCL_L_force	aMCL_L_force	aLCL_L_force	aACL_R_length	pACL_R_length	aPCL_R_length	pPCL_R_length	aMCL_R_length	mMCL_R_length	pMCL_R_length	aLCL_R_length	mLCL_R_length	pLCL_R_length	aPCL_L_length	pPCL_L_length	aMCL_L_length	aLCL_L_length	aACL_R_strain	pACL_R_strain	aPCL_R_strain	pPCL_R_strain	aMCL_R_strain	mMCL_R_strain	pMCL_R_strain	aLCL_R_strain	mLCL_R_strain	pLCL_R_strain	aPCL_L_strain	pPCL_L_strain	aMCL_L_strain	aLCL_L_strain	femur_lat_meniscii_r.femur_lat_r.force.X	femur_lat_meniscii_r.femur_lat_r.force.Y	femur_lat_meniscii_r.femur_lat_r.force.Z	femur_lat_meniscii_r.femur_lat_r.torque.X	femur_lat_meniscii_r.femur_lat_r.torque.Y	femur_lat_meniscii_r.femur_lat_r.torque.Z	femur_lat_meniscii_r.meniscus_lat_r.force.X	femur_lat_meniscii_r.meniscus_lat_r.force.Y	femur_lat_meniscii_r.meniscus_lat_r.force.Z	femur_lat_meniscii_r.meniscus_lat_r.torque.X	femur_lat_meniscii_r.meniscus_lat_r.torque.Y	femur_lat_meniscii_r.meniscus_lat_r.torque.Z	femur_med_meniscii_r.femur_med_r.force.X	femur_med_meniscii_r.femur_med_r.force.Y	femur_med_meniscii_r.femur_med_r.force.Z	femur_med_meniscii_r.femur_med_r.torque.X	femur_med_meniscii_r.femur_med_r.torque.Y	femur_med_meniscii_r.femur_med_r.torque.Z	femur_med_meniscii_r.meniscus_med_r.force.X	femur_med_meniscii_r.meniscus_med_r.force.Y	femur_med_meniscii_r.meniscus_med_r.force.Z	femur_med_meniscii_r.meniscus_med_r.torque.X	femur_med_meniscii_r.meniscus_med_r.torque.Y	femur_med_meniscii_r.meniscus_med_r.torque.Z	femur_med_tibia_r.tibia_upper_r.force.X	femur_med_tibia_r.tibia_upper_r.force.Y	femur_med_tibia_r.tibia_upper_r.force.Z	femur_med_tibia_r.tibia_upper_r.torque.X	femur_med_tibia_r.tibia_upper_r.torque.Y	femur_med_tibia_r.tibia_upper_r.torque.Z	femur_med_tibia_r.femur_med_r.force.X	femur_med_tibia_r.femur_med_r.force.Y	femur_med_tibia_r.femur_med_r.force.Z	femur_med_tibia_r.femur_med_r.torque.X	femur_med_tibia_r.femur_med_r.torque.Y	femur_med_tibia_r.femur_med_r.torque.Z	femur_lat_tibia_r.tibia_upper_r.force.X	femur_lat_tibia_r.tibia_upper_r.force.Y	femur_lat_tibia_r.tibia_upper_r.force.Z	femur_lat_tibia_r.tibia_upper_r.torque.X	femur_lat_tibia_r.tibia_upper_r.torque.Y	femur_lat_tibia_r.tibia_upper_r.torque.Z	femur_lat_tibia_r.femur_lat_r.force.X	femur_lat_tibia_r.femur_lat_r.force.Y	femur_lat_tibia_r.femur_lat_r.force.Z	femur_lat_tibia_r.femur_lat_r.torque.X	femur_lat_tibia_r.femur_lat_r.torque.Y	femur_lat_tibia_r.femur_lat_r.torque.Z	femur_lat_meniscii_force_r	femur_med_meniscii_force_r	femur_lat_tibia_force_r	femur_med_tibia_force_r
      0.16635084	      0.01312537	      0.01743896	     57.66329276	      1.69376392	      0.00000000	    591.06059878	    378.18742596	      0.00000000	      0.00000000	      0.00000000	      0.00000000	      0.00000000	      0.00000000	      0.00000000	      0.00000000	      0.00000001	      0.00000000	      0.03156053	      0.02428126	      0.03502654	      0.03245630	      0.05954471	      0.05915584	      0.05620874	      0.05280893	      0.04804786	      0.04311868	      0.01525851	      0.01651186	      0.06550154	      0.04489616	      0.01790112	     -0.03102471	      0.12642550	      0.08593807	     -0.00803449	     -0.01066444	     -0.04289707	     -0.05659936	     -0.14685637	     -0.17622359	      0.00000079	     -0.32847694	      0.00000060	     -0.00000086	    123.93088999	    225.81378705	     29.03096744	    -17.11304668	      3.03257595	     48.38223628	   -123.93088999	   -225.81378705	    -29.03096744	      6.21103842	     -3.81536103	      4.24636628	     33.34156077	     26.61006498	     11.84812715	     -4.16275210	     -0.74161066	     13.35515795	    -33.34156077	    -26.61006498	    -11.84812715	     -0.38075813	      0.44690609	      0.09252270	   -742.82999820	   -670.97225030	    223.16200828	    -15.53902363	     16.92659535	     -0.72699998	    742.82999820	    670.97225030	   -223.16200828	    102.80116708	    -13.34533946	    301.96044787	      0.00000000	      0.00000000	      0.00000000	      0.00000000	      0.00000000	      0.00000000	      0.00000000	      0.00000000	      0.00000000	      0.00000000	      0.00000000	      0.00000000	    259.21714639	     44.27339325	      0.00000000	   1025.57371692
      0.16661203	      0.01314239	      0.01748887	     57.80340032	      1.70291616	      0.00000000	    593.57437343	    379.31216275	      0.00000000	      0.00000000	      0.00000000	      0.00000000	      0.00000000	      0.00000000	      0.00000000	      0.00000000	      0.00000001	      0.00000000	      0.03156007	      0.02428192	      0.03504142	      0.03246496	      0.05955725	      0.05915817	      0.05620446	      0.05280057	      0.04803345	      0.04310063	      0.01525851	      0.01651186	      0.06550154	      0.04489616	      0.01788613	     -0.03099850	      0.12690407	      0.08622790	     -0.00782571	     -0.01062540	     -0.04297003	     -0.05674861	     -0.14711217	     -0.17656850	      0.00000079	     -0.32847694	      0.00000060	     -0.00000086	    125.66131878	    224.98220545	     28.71121889	    -16.95248113	      3.07891329	     49.09650247	   -125.66131878	   -224.98220545	    -28.71121889	      6.17222830	     -3.85914222	      4.19968184	     33.46775767	     26.40438832	     11.77673659	     -4.13836850	     -0.74303956	     13.40550202	    -33.46775767	    -26.40438832	    -11.77673659	     -0.37825180	      0.44901415	      0.08929880	   -745.63205760	   -669.58983873	    223.82052463	    -15.51325471	     16.99414792	     -0.73872187	    745.63205760	    669.58983873	   -223.82052463	    103.03848356	    -13.39412798	    303.08880059	      0.00000000	      0.00000000	      0.00000000	      0.00000000	      0.00000000	      0.00000000	      0.00000000	      0.00000000	      0.00000000	      0.00000000	      0.00000000	      0.00000000	    259.29152300	     44.22639541	      0.00000000	   1026.84631016
      0.16687322	      0.01315933	      0.01753884	     57.94352159	      1.67063658	      0.00000000	    596.11104415	    380.52385524	      0.00000000	      0.00000000	      0.00000000	      0.00000000	      0.00000000	      0.00000000	      0.00000000	      0.00000000	      0.00000001	      0.00000000	      0.03155959	      0.02428258	      0.03505623	      0.03247358	      0.05956975	      0.05916051	      0.05620022	      0.05279211	      0.04801896	      0.04308252	      0.01525851	      0.01651186	      0.06550154	      0.04489616	      0.01787073	     -0.03097224	      0.12738042	      0.08651635	     -0.00761742	     -0.01058630	     -0.04304217	     -0.05689970	     -0.14736942	     -0.17691442	      0.00000079	     -0.32847694	      0.00000060	     -0.00000086	    126.36062631	    225.33064586	     29.05084519	    -17.10261274	      3.09659037	     49.37170279	   -126.36062631	   -225.33064586	    -29.05084519	      6.19079553	     -3.88654945	      4.21799612	     33.61505026	     26.27718007	     11.70120766	     -4.11181767	     -0.74412157	     13.46277713	    -33.61505026	    -26.27718007	    -11.70120766	     -0.37619575	      0.45083861	      0.08893910	   -748.43584268	   -669.22436220	    223.60089643	    -15.47750397	     17.03481633	     -0.71921002	    748.43584268	    669.22436220	   -223.60089643	    102.92770382	    -13.43436914	    304.20802458	      0.00000000	      0.00000000	      0.00000000	      0.00000000	      0.00000000	      0.00000000	      0.00000000	      0.00000000	      0.00000000	      0.00000000	      0.00000000	      0.00000000	    259.97088193	     44.24228811	      0.00000000	   1028.59847290
      0.16722741	      0.01318215	      0.01760671	     58.13356253	      1.71055595	      0.00000000	    599.52129386	    382.12392228	      0.00000000	      0.00000000	      0.00000000	      0.00000000	      0.00000000	      0.00000000	      0.00000000	      0.00000000	      0.00000001	      0.00000000	      0.03155895	      0.02428349	      0.03507621	      0.03248521	      0.05958667	      0.05916369	      0.05619456	      0.05278050	      0.04799920	      0.04305790	      0.01525851	      0.01651186	      0.06550154	      0.04489616	      0.01785004	     -0.03093558	      0.12802298	      0.08690546	     -0.00733554	     -0.01053301	     -0.04313849	     -0.05710727	     -0.14772029	     -0.17738485	      0.00000079	     -0.32847694	      0.00000060	     -0.00000086	    128.71179047	    226.19076309	     29.71803351	    -17.40400167	      3.15912969	     50.32556120	   -128.71179047	   -226.19076309	    -29.71803351	      6.23435085	     -3.96869870	      4.21313458	     34.00370554	     26.21391495	     11.46616140	     -4.01905951	     -0.75129827	     13.61641331	    -34.00370554	    -26.21391495	    -11.46616140	     -0.37869267	      0.46154466	      0.08786322	   -752.28280244	   -669.07633419	    223.73007199	    -15.45053721	     17.10627877	     -0.68168887	    752.28280244	    669.07633419	   -223.73007199	    102.96470098	    -13.49642742	    305.73977014	      0.00000000	      0.00000000	      0.00000000	      0.00000000	      0.00000000	      0.00000000	      0.00000000	      0.00000000	      0.00000000	      0.00000000	      0.00000000	      0.00000000	    261.93920636	     44.43978155	      0.00000000	   1031.33297287
